<svg width="57" height="56" viewBox="0 0 57 56" fill="none" xmlns="http://www.w3.org/2000/svg">
<path fill-rule="evenodd" clip-rule="evenodd" d="M27.2255 26.8298C27.2139 12.059 15.1653 0.0888672 0.304688 0.0888672V9.00963C10.2165 9.00963 18.2525 16.9971 18.2525 26.8503H27.2255V26.8298Z" fill="#0E0E0E"/>
<path fill-rule="evenodd" clip-rule="evenodd" d="M27.2255 55.9693C27.2094 41.203 15.1626 29.2373 0.304688 29.2373V38.1581C10.2165 38.1581 18.2525 46.1456 18.2525 55.9996H27.2255V55.9693Z" fill="#0E0E0E"/>
<path fill-rule="evenodd" clip-rule="evenodd" d="M29.3828 55.9996V55.9871C29.39 41.2128 41.4404 29.2373 56.3046 29.2373V38.1581C46.3918 38.1581 38.3567 46.1456 38.3567 55.9996H29.3828Z" fill="#0E0E0E"/>
<path fill-rule="evenodd" clip-rule="evenodd" d="M47.3261 0H56.2736V27.0052H47.31V13.7362L35.732 27.08L29.3837 20.6859L47.31 0.0189435V0H47.3261ZM35.732 27.0809H29.3828V20.6868L35.732 27.0809Z" fill="#0E0E0E"/>
</svg>
